name ./resultDataOpenSim/trcMotMarkerGrf/sub10/grf-14-04.mot
datacolumns 19
datarows 12
range 0.48800000 0.53200000
endheader

                time	     ground_force_vx	     ground_force_vy	     ground_force_vz	     ground_force_px	     ground_force_py	     ground_force_pz	   l_ground_force_vx	   l_ground_force_vy	   l_ground_force_vz	   l_ground_force_px	   l_ground_force_py	   l_ground_force_pz	     ground_torque_x	     ground_torque_y	     ground_torque_z	   l_ground_torque_x	   l_ground_torque_y	   l_ground_torque_z	
          0.48800000	         46.00918860	        541.60368440	        -27.17687328	         -0.75431635	          0.00000000	         -0.02798724	          0.00000000	          0.00000000	          0.00000000	          0.00000000	          0.00000000	          0.00000000	          0.00000000	          5.75505215	          0.00000000	          0.00000000	          0.00000000	          0.00000000	
          0.49200000	         49.22612988	        555.66399262	        -28.80836205	         -0.75293728	          0.00000000	         -0.02782395	          0.00000000	          0.00000000	          0.00000000	          0.00000000	          0.00000000	          0.00000000	          0.00000000	          5.87271091	          0.00000000	          0.00000000	          0.00000000	          0.00000000	
          0.49600000	         53.05657717	        569.96837020	        -30.89467651	         -0.75162457	          0.00000000	         -0.02763984	          0.00000000	          0.00000000	          0.00000000	          0.00000000	          0.00000000	          0.00000000	          0.00000000	          5.94714565	          0.00000000	          0.00000000	          0.00000000	          0.00000000	
          0.50000000	         57.25867122	        584.45263489	        -33.23614585	         -0.75036168	          0.00000000	         -0.02744811	          0.00000000	          0.00000000	          0.00000000	          0.00000000	          0.00000000	          0.00000000	          0.00000000	          5.98808878	          0.00000000	          0.00000000	          0.00000000	          0.00000000	
          0.50400000	         61.52363015	        599.04550604	        -35.60965956	         -0.74911117	          0.00000000	         -0.02726670	          0.00000000	          0.00000000	          0.00000000	          0.00000000	          0.00000000	          0.00000000	          0.00000000	          6.00610569	          0.00000000	          0.00000000	          0.00000000	          0.00000000	
          0.50800000	         65.58537480	        613.69582986	        -37.82133709	         -0.74784322	          0.00000000	         -0.02711193	          0.00000000	          0.00000000	          0.00000000	          0.00000000	          0.00000000	          0.00000000	          0.00000000	          6.00959453	          0.00000000	          0.00000000	          0.00000000	          0.00000000	
          0.51200000	         69.30607266	        628.40372984	        -39.74936447	         -0.74655475	          0.00000000	         -0.02699526	          0.00000000	          0.00000000	          0.00000000	          0.00000000	          0.00000000	          0.00000000	          0.00000000	          6.00277702	          0.00000000	          0.00000000	          0.00000000	          0.00000000	
          0.51600000	         72.69861689	        643.25810583	        -41.35959624	         -0.74526892	          0.00000000	         -0.02692849	          0.00000000	          0.00000000	          0.00000000	          0.00000000	          0.00000000	          0.00000000	          0.00000000	          5.98505786	          0.00000000	          0.00000000	          0.00000000	          0.00000000	
          0.52000000	         75.89123250	        658.45001062	        -42.68354939	         -0.74404323	          0.00000000	         -0.02692161	          0.00000000	          0.00000000	          0.00000000	          0.00000000	          0.00000000	          0.00000000	          0.00000000	          5.95179440	          0.00000000	          0.00000000	          0.00000000	          0.00000000	
          0.52400000	         79.08393318	        674.18392988	        -43.78149940	         -0.74296308	          0.00000000	         -0.02697123	          0.00000000	          0.00000000	          0.00000000	          0.00000000	          0.00000000	          0.00000000	          0.00000000	          5.89629547	          0.00000000	          0.00000000	          0.00000000	          0.00000000	
          0.52800000	         82.51192698	        690.50199824	        -44.71556159	         -0.74207842	          0.00000000	         -0.02707553	          0.00000000	          0.00000000	          0.00000000	          0.00000000	          0.00000000	          0.00000000	          0.00000000	          5.81269834	          0.00000000	          0.00000000	          0.00000000	          0.00000000	
          0.53200000	         86.38247128	        707.21310820	        -45.51839532	         -0.74134208	          0.00000000	         -0.02724489	          0.00000000	          0.00000000	          0.00000000	          0.00000000	          0.00000000	          0.00000000	          0.00000000	          5.69913529	          0.00000000	          0.00000000	          0.00000000	          0.00000000	
